<mxfile host="65bd71144e">
    <diagram id="7YxvrErBxwVpMXqXlIV0" name="Page-1">
        <mxGraphModel dx="896" dy="411" grid="1" gridSize="10" guides="1" tooltips="1" connect="1" arrows="1" fold="1" page="1" pageScale="1" pageWidth="850" pageHeight="1100" math="0" shadow="0">
            <root>
                <mxCell id="0"/>
                <mxCell id="1" parent="0"/>
                <mxCell id="3" value="" style="endArrow=oval;startArrow=oval;html=1;startFill=1;endFill=1;fillColor=#60a917;strokeColor=#CCFF99;" parent="1" edge="1">
                    <mxGeometry width="50" height="50" relative="1" as="geometry">
                        <mxPoint x="120" y="200" as="sourcePoint"/>
                        <mxPoint x="320" y="200" as="targetPoint"/>
                    </mxGeometry>
                </mxCell>
                <mxCell id="12" value="&lt;font color=&quot;#a8d081&quot;&gt;Active&lt;/font&gt;" style="edgeLabel;html=1;align=center;verticalAlign=middle;resizable=0;points=[];fontSize=21;fontFamily=Helvetica;fontColor=#7f2dd2;" parent="3" vertex="1" connectable="0">
                    <mxGeometry x="-0.2766" y="-2" relative="1" as="geometry">
                        <mxPoint x="28" y="-22" as="offset"/>
                    </mxGeometry>
                </mxCell>
                <mxCell id="4" value="" style="endArrow=oval;startArrow=oval;html=1;startFill=1;endFill=1;strokeColor=#9933FF;fontColor=default;labelBackgroundColor=default;fillColor=#1ba1e2;" parent="1" edge="1">
                    <mxGeometry width="50" height="50" relative="1" as="geometry">
                        <mxPoint x="520" y="200" as="sourcePoint"/>
                        <mxPoint x="720" y="200" as="targetPoint"/>
                    </mxGeometry>
                </mxCell>
                <mxCell id="10" value="&lt;font color=&quot;#7f2dd2&quot; style=&quot;font-size: 21px;&quot;&gt;done&lt;/font&gt;" style="edgeLabel;html=1;align=center;verticalAlign=middle;resizable=0;points=[];fontColor=#7fd0d2;fontSize=21;" parent="4" vertex="1" connectable="0">
                    <mxGeometry x="-0.2266" relative="1" as="geometry">
                        <mxPoint x="33" y="-20" as="offset"/>
                    </mxGeometry>
                </mxCell>
                <mxCell id="5" value="" style="endArrow=oval;startArrow=oval;html=1;startFill=1;endFill=1;fillColor=#1ba1e2;strokeColor=#99FFFF;" parent="1" edge="1">
                    <mxGeometry width="50" height="50" relative="1" as="geometry">
                        <mxPoint x="320" y="200" as="sourcePoint"/>
                        <mxPoint x="520" y="200" as="targetPoint"/>
                    </mxGeometry>
                </mxCell>
                <mxCell id="9" value="&lt;font color=&quot;#7fd0d2&quot; style=&quot;font-size: 21px;&quot;&gt;inReview&lt;/font&gt;" style="edgeLabel;html=1;align=center;verticalAlign=middle;resizable=0;points=[];fontColor=#99FF99;fontSize=21;" parent="5" vertex="1" connectable="0">
                    <mxGeometry x="-0.2466" y="4" relative="1" as="geometry">
                        <mxPoint x="30" y="-16" as="offset"/>
                    </mxGeometry>
                </mxCell>
                <mxCell id="6" value="event end time" style="text;html=1;align=center;verticalAlign=middle;resizable=0;points=[];autosize=1;strokeColor=none;fillColor=none;" parent="1" vertex="1">
                    <mxGeometry x="270" y="220" width="100" height="30" as="geometry"/>
                </mxCell>
                <mxCell id="7" value="Review Time" style="text;html=1;align=center;verticalAlign=middle;resizable=0;points=[];autosize=1;strokeColor=none;fillColor=none;" parent="1" vertex="1">
                    <mxGeometry x="480" y="220" width="90" height="30" as="geometry"/>
                </mxCell>
                <mxCell id="14" value="Now" style="strokeWidth=2;html=1;shape=mxgraph.flowchart.start_2;whiteSpace=wrap;labelBackgroundColor=none;fontFamily=Helvetica;fontSize=21;fontColor=#ffffff;fillColor=#60a917;strokeColor=#2D7600;fillStyle=auto;gradientColor=none;" parent="1" vertex="1">
                    <mxGeometry x="180" y="30" width="70" height="70" as="geometry"/>
                </mxCell>
            </root>
        </mxGraphModel>
    </diagram>
</mxfile>